<svg width="50" height="50" viewBox="0 0 50 50" fill="none" xmlns="http://www.w3.org/2000/svg">
<path fill-rule="evenodd" clip-rule="evenodd" d="M12.45 39.173C9.88333 39.173 8.28333 36.3896 9.56667 34.173L22.1167 12.4896C23.4 10.273 26.6 10.273 27.8833 12.4896L40.4333 34.173C41.7167 36.3896 40.1167 39.173 37.55 39.173H12.45ZM37.55 35.8396L25 14.1563L12.45 35.8396H37.55ZM23.3333 22.5063V25.8396C23.3333 26.7563 24.0833 27.5063 25 27.5063C25.9167 27.5063 26.6667 26.7563 26.6667 25.8396V22.5063C26.6667 21.5896 25.9167 20.8396 25 20.8396C24.0833 20.8396 23.3333 21.5896 23.3333 22.5063ZM26.6667 34.173V30.8396H23.3333V34.173H26.6667Z" fill="#F44336"/>
</svg>
