<svg width="50" height="50" viewBox="0 0 50 50" fill="none" xmlns="http://www.w3.org/2000/svg">
<path fill-rule="evenodd" clip-rule="evenodd" d="M25 38C32.1797 38 38 32.1797 38 25C38 17.8203 32.1797 12 25 12C17.8203 12 12 17.8203 12 25C12 32.1797 17.8203 38 25 38ZM25 41C33.8366 41 41 33.8366 41 25C41 16.1634 33.8366 9 25 9C16.1634 9 9 16.1634 9 25C9 33.8366 16.1634 41 25 41Z" fill="#4CAF50"/>
<path d="M22.0823 29.6031L18.105 25.6258C17.895 25.4132 17.6085 25.2935 17.3096 25.2935C17.0107 25.2935 16.7242 25.4132 16.5141 25.6258C16.071 26.069 16.071 26.7736 16.5141 27.2167L21.2755 31.9781C21.7187 32.4213 22.4346 32.4213 22.8777 31.9781L33.4859 21.4144C33.929 20.9713 33.929 20.2667 33.4859 19.8235C33.2758 19.6109 32.9893 19.4912 32.6904 19.4912C32.3915 19.4912 32.105 19.6109 31.895 19.8235L22.0823 29.6031Z" fill="#4CAF50"/>
</svg>
