<svg width="25" height="25" viewBox="0 0 25 25" fill="none" xmlns="http://www.w3.org/2000/svg">
<path d="M21.6429 7.29533C21.3288 6.56792 20.8758 5.90874 20.3093 5.3547C19.7425 4.79901 19.0741 4.35742 18.3406 4.05392C17.58 3.73797 16.7642 3.57625 15.9406 3.57814C14.7851 3.57814 13.6578 3.89455 12.6781 4.4922C12.4437 4.63517 12.2211 4.7922 12.0101 4.9633C11.7992 4.7922 11.5765 4.63517 11.3422 4.4922C10.3625 3.89455 9.23513 3.57814 8.07966 3.57814C7.24763 3.57814 6.44138 3.73752 5.67966 4.05392C4.94373 4.35861 4.28044 4.79689 3.71091 5.3547C3.14372 5.90812 2.69063 6.56745 2.37732 7.29533C2.05154 8.05236 1.88513 8.85627 1.88513 9.68361C1.88513 10.4641 2.04451 11.2774 2.36091 12.1047C2.62576 12.7961 3.00544 13.5133 3.4906 14.2375C4.25935 15.3836 5.31638 16.5789 6.62888 17.7906C8.80388 19.7992 10.9578 21.1867 11.0492 21.243L11.6047 21.5992C11.8508 21.7563 12.1672 21.7563 12.4133 21.5992L12.9687 21.243C13.0601 21.1844 15.2117 19.7992 17.389 17.7906C18.7015 16.5789 19.7586 15.3836 20.5273 14.2375C21.0125 13.5133 21.3945 12.7961 21.657 12.1047C21.9734 11.2774 22.1328 10.4641 22.1328 9.68361C22.1351 8.85627 21.9687 8.05236 21.6429 7.29533ZM12.0101 19.7453C12.0101 19.7453 3.66638 14.3992 3.66638 9.68361C3.66638 7.29533 5.64216 5.35939 8.07966 5.35939C9.79294 5.35939 11.2789 6.31564 12.0101 7.71252C12.7414 6.31564 14.2273 5.35939 15.9406 5.35939C18.3781 5.35939 20.3539 7.29533 20.3539 9.68361C20.3539 14.3992 12.0101 19.7453 12.0101 19.7453Z" fill="#818B95"/>
</svg>
