<svg width="24" height="25" viewBox="0 0 24 25" fill="none" xmlns="http://www.w3.org/2000/svg">
<path d="M3.1875 13.585H4.67813C4.78125 13.585 4.86563 13.5006 4.86563 13.3975V7.41387H17.2547V9.11544C17.2547 9.15997 17.2688 9.20216 17.2969 9.23731C17.3127 9.25755 17.3323 9.27447 17.3547 9.28709C17.377 9.29971 17.4017 9.30777 17.4272 9.31082C17.4526 9.31387 17.4785 9.31185 17.5032 9.30486C17.5279 9.29788 17.551 9.28607 17.5711 9.27012L20.9297 6.6334C21.0305 6.51622 21.0141 6.392 20.9297 6.32403L17.5711 3.68965C17.5365 3.66201 17.4935 3.64711 17.4492 3.64747C17.3414 3.64747 17.2523 3.73653 17.2523 3.84434V5.5459H4.68047C3.75469 5.5459 3 6.30059 3 7.22872V13.3975C3 13.5006 3.08437 13.585 3.1875 13.585ZM20.8125 11.71H19.3219C19.2188 11.71 19.1344 11.7943 19.1344 11.8975V17.8811H6.74531V16.1795C6.74531 16.135 6.73125 16.0928 6.70312 16.0576C6.68734 16.0374 6.66769 16.0205 6.64534 16.0078C6.62298 15.9952 6.59834 15.9872 6.57285 15.9841C6.54736 15.9811 6.52151 15.9831 6.49681 15.9901C6.4721 15.9971 6.44903 16.0089 6.42891 16.0248L3.07031 18.6615C2.96953 18.7787 2.98594 18.9029 3.07031 18.9709L6.42891 21.6053C6.46406 21.6334 6.50625 21.6475 6.55078 21.6475C6.65859 21.6475 6.74766 21.5584 6.74766 21.4506V19.749H19.3242C20.25 19.749 21.0047 18.9943 21.0047 18.0662V11.8975C21 11.7943 20.9156 11.71 20.8125 11.71Z" fill="#818B95"/>
</svg>
