<svg width="24" height="25" viewBox="0 0 24 25" fill="none" xmlns="http://www.w3.org/2000/svg">
<path d="M7.72 17.1106L9.481 16.6026L20.084 5.87263C20.1676 5.78693 20.2142 5.67176 20.2136 5.55202C20.2131 5.43227 20.1654 5.31755 20.081 5.23263L19.446 4.59063C19.405 4.54847 19.3559 4.5149 19.3018 4.49189C19.2477 4.46888 19.1895 4.45688 19.1306 4.4566C19.0718 4.45632 19.0135 4.46777 18.9591 4.49026C18.9048 4.51276 18.8554 4.54586 18.814 4.58763L8.239 15.2896L7.719 17.1096L7.72 17.1106ZM20.703 3.31863L21.338 3.96163C22.214 4.84863 22.222 6.27963 21.354 7.15763L10.428 18.2156L6.664 19.2996C6.4342 19.364 6.18826 19.3345 5.98016 19.2177C5.77206 19.1009 5.6188 18.9063 5.554 18.6766C5.50578 18.5115 5.50509 18.3361 5.552 18.1706L6.647 14.3306L17.544 3.30163C17.7512 3.09299 17.9979 2.92769 18.2696 2.81538C18.5414 2.70307 18.8328 2.646 19.1269 2.64749C19.4209 2.64898 19.7117 2.709 19.9823 2.82406C20.2529 2.93911 20.4979 3.1069 20.703 3.31763V3.31863ZM9.184 4.47163C9.68 4.47163 10.082 4.87863 10.082 5.38063C10.0828 5.4993 10.0602 5.61696 10.0155 5.72688C9.97076 5.83681 9.90481 5.93684 9.82141 6.02126C9.73801 6.10569 9.63879 6.17284 9.52942 6.21889C9.42004 6.26494 9.30267 6.28898 9.184 6.28963H5.592C4.6 6.28963 3.796 7.10363 3.796 8.10663V19.0126C3.796 20.0166 4.6 20.8306 5.592 20.8306H16.368C17.36 20.8306 18.165 20.0166 18.165 19.0126V15.3776C18.165 14.8756 18.567 14.4686 19.063 14.4686C19.559 14.4686 19.961 14.8756 19.961 15.3786V19.0126C19.961 21.0206 18.352 22.6486 16.368 22.6486H5.592C3.608 22.6486 2 21.0206 2 19.0126V8.10663C2 6.09963 3.608 4.47163 5.592 4.47163H9.184Z" fill="#818B95"/>
</svg>
