<svg width="28" height="25" viewBox="0 0 28 25" fill="none" xmlns="http://www.w3.org/2000/svg">
<rect x="1" y="3.0752" width="26" height="18" rx="4" stroke="white" stroke-width="2"/>
<path d="M10.918 12.9922C10.8535 13.6748 10.6016 14.208 10.1621 14.5918C9.72266 14.9727 9.13818 15.1631 8.40869 15.1631C7.89893 15.1631 7.44922 15.043 7.05957 14.8027C6.67285 14.5596 6.37402 14.2153 6.16309 13.77C5.95215 13.3247 5.84229 12.8076 5.8335 12.2188V11.6211C5.8335 11.0176 5.94043 10.4858 6.1543 10.0259C6.36816 9.56592 6.67432 9.21143 7.07275 8.9624C7.47412 8.71338 7.93701 8.58887 8.46143 8.58887C9.16748 8.58887 9.73584 8.78076 10.1665 9.16455C10.5972 9.54834 10.8477 10.0903 10.918 10.7905H9.81055C9.75781 10.3306 9.62305 9.99951 9.40625 9.79736C9.19238 9.59229 8.87744 9.48975 8.46143 9.48975C7.97803 9.48975 7.60596 9.66699 7.34521 10.0215C7.0874 10.373 6.95557 10.8901 6.94971 11.5728V12.1396C6.94971 12.8311 7.07275 13.3584 7.31885 13.7217C7.56787 14.085 7.93115 14.2666 8.40869 14.2666C8.84521 14.2666 9.17334 14.1685 9.39307 13.9722C9.61279 13.7759 9.75195 13.4492 9.81055 12.9922H10.918ZM15.4098 13.4272C15.4098 13.146 15.3102 12.9292 15.1109 12.7769C14.9146 12.6245 14.5587 12.4707 14.0431 12.3154C13.5274 12.1602 13.1173 11.9873 12.8126 11.7969C12.2296 11.4307 11.9381 10.9531 11.9381 10.3643C11.9381 9.84863 12.1476 9.42383 12.5665 9.08984C12.9884 8.75586 13.5348 8.58887 14.2057 8.58887C14.651 8.58887 15.0479 8.6709 15.3966 8.83496C15.7452 8.99902 16.0191 9.2334 16.2184 9.53809C16.4176 9.83984 16.5172 10.1753 16.5172 10.5444H15.4098C15.4098 10.2104 15.3043 9.94971 15.0934 9.76221C14.8854 9.57178 14.5865 9.47656 14.1969 9.47656C13.8336 9.47656 13.5509 9.5542 13.3487 9.70947C13.1495 9.86475 13.0499 10.0815 13.0499 10.3599C13.0499 10.5942 13.1583 10.7905 13.3751 10.9487C13.5919 11.104 13.9493 11.2563 14.4474 11.4058C14.9454 11.5522 15.3453 11.7207 15.6471 11.9111C15.9488 12.0986 16.17 12.3154 16.3106 12.5615C16.4513 12.8047 16.5216 13.0903 16.5216 13.4185C16.5216 13.9517 16.3165 14.3765 15.9063 14.6929C15.4991 15.0063 14.9454 15.1631 14.2452 15.1631C13.7823 15.1631 13.3561 15.0781 12.9664 14.9082C12.5797 14.7354 12.2779 14.498 12.0611 14.1963C11.8473 13.8945 11.7403 13.543 11.7403 13.1416H12.8521C12.8521 13.5049 12.9723 13.7861 13.2125 13.9854C13.4527 14.1846 13.797 14.2842 14.2452 14.2842C14.6319 14.2842 14.922 14.2065 15.1153 14.0513C15.3116 13.8931 15.4098 13.6851 15.4098 13.4272ZM19.9016 13.6821L21.5275 8.67676H22.7492L20.4465 15.0752H19.3698L17.0759 8.67676H18.2932L19.9016 13.6821Z" fill="white"/>
</svg>
