<svg width="41" height="24" viewBox="0 0 41 24" fill="none" xmlns="http://www.w3.org/2000/svg">
<rect x="1.1145" y="3" width="38.5906" height="18" rx="4" stroke="white" stroke-width="2"/>
<path d="M10.6257 12.1436H7.9978V14.1123H11.0696V15H6.88599V8.60156H11.0388V9.49805H7.9978V11.2646H10.6257V12.1436ZM12.1249 15V8.60156H14.0145C14.5799 8.60156 15.0809 8.72754 15.5174 8.97949C15.9569 9.23145 16.2967 9.58887 16.537 10.0518C16.7772 10.5146 16.8973 11.0449 16.8973 11.6426V11.9634C16.8973 12.5698 16.7757 13.103 16.5326 13.563C16.2923 14.0229 15.9481 14.3774 15.4999 14.6265C15.0545 14.8755 14.5433 15 13.9662 15H12.1249ZM13.2367 9.49805V14.1123H13.9618C14.5448 14.1123 14.9916 13.9307 15.3021 13.5674C15.6156 13.2012 15.7752 12.6768 15.7811 11.9941V11.6382C15.7811 10.9438 15.6302 10.4136 15.3285 10.0474C15.0267 9.68115 14.5887 9.49805 14.0145 9.49805H13.2367ZM23.059 14.1694C22.8276 14.4712 22.5068 14.6997 22.0966 14.855C21.6865 15.0103 21.2207 15.0879 20.6992 15.0879C20.163 15.0879 19.6884 14.9663 19.2753 14.7231C18.8623 14.48 18.5429 14.1328 18.3173 13.6816C18.0947 13.2275 17.979 12.6987 17.9702 12.0952V11.5942C17.9702 10.6274 18.2016 9.87305 18.6645 9.33105C19.1274 8.78613 19.7734 8.51367 20.6025 8.51367C21.3144 8.51367 21.8798 8.68945 22.2988 9.04102C22.7177 9.39258 22.9697 9.89941 23.0546 10.5615H21.9648C21.8417 9.79102 21.395 9.40576 20.6245 9.40576C20.1264 9.40576 19.747 9.58594 19.4863 9.94629C19.2285 10.3037 19.0952 10.8296 19.0864 11.5239V12.0161C19.0864 12.7075 19.2314 13.2451 19.5214 13.6289C19.8144 14.0098 20.2202 14.2002 20.7387 14.2002C21.3071 14.2002 21.7114 14.0713 21.9516 13.8135V12.561H20.6333V11.7173H23.059V14.1694ZM28.1705 12.1436H25.5425V14.1123H28.6143V15H24.4307V8.60156H28.5835V9.49805H25.5425V11.2646H28.1705V12.1436ZM33.0138 13.3521C33.0138 13.0708 32.9142 12.854 32.715 12.7017C32.5187 12.5493 32.1627 12.3955 31.6471 12.2402C31.1315 12.085 30.7213 11.9121 30.4167 11.7217C29.8336 11.3555 29.5421 10.8779 29.5421 10.2891C29.5421 9.77344 29.7516 9.34863 30.1706 9.01465C30.5924 8.68066 31.1388 8.51367 31.8097 8.51367C32.255 8.51367 32.652 8.5957 33.0006 8.75977C33.3493 8.92383 33.6232 9.1582 33.8224 9.46289C34.0216 9.76465 34.1212 10.1001 34.1212 10.4692H33.0138C33.0138 10.1353 32.9083 9.87451 32.6974 9.68701C32.4894 9.49658 32.1906 9.40137 31.8009 9.40137C31.4376 9.40137 31.1549 9.479 30.9528 9.63428C30.7536 9.78955 30.654 10.0063 30.654 10.2847C30.654 10.519 30.7624 10.7153 30.9792 10.8735C31.1959 11.0288 31.5534 11.1812 32.0514 11.3306C32.5495 11.4771 32.9494 11.6455 33.2511 11.8359C33.5529 12.0234 33.7741 12.2402 33.9147 12.4863C34.0553 12.7295 34.1256 13.0151 34.1256 13.3433C34.1256 13.8765 33.9206 14.3013 33.5104 14.6177C33.1032 14.9312 32.5495 15.0879 31.8493 15.0879C31.3864 15.0879 30.9601 15.0029 30.5705 14.833C30.1837 14.6602 29.882 14.4229 29.6652 14.1211C29.4513 13.8193 29.3444 13.4678 29.3444 13.0664H30.4562C30.4562 13.4297 30.5763 13.7109 30.8166 13.9102C31.0568 14.1094 31.401 14.209 31.8493 14.209C32.236 14.209 32.526 14.1313 32.7194 13.9761C32.9157 13.8179 33.0138 13.6099 33.0138 13.3521Z" fill="white"/>
</svg>
