<svg width="25" height="25" viewBox="0 0 25 25" fill="none" xmlns="http://www.w3.org/2000/svg">
<path fill-rule="evenodd" clip-rule="evenodd" d="M2.22803 12.0752C2.22803 6.5552 6.70803 2.0752 12.228 2.0752C17.748 2.0752 22.228 6.5552 22.228 12.0752C22.228 17.5952 17.748 22.0752 12.228 22.0752C6.70803 22.0752 2.22803 17.5952 2.22803 12.0752ZM4.22803 12.0752C4.22803 16.4852 7.81803 20.0752 12.228 20.0752C16.638 20.0752 20.228 16.4852 20.228 12.0752C20.228 7.6652 16.638 4.0752 12.228 4.0752C7.81803 4.0752 4.22803 7.6652 4.22803 12.0752ZM13.228 16.0752V18.0752H11.228V16.0752H13.228ZM8.40803 8.9052C8.95803 7.0852 10.778 5.8152 12.838 6.1152C14.578 6.3752 15.948 7.8452 16.188 9.5852C16.4161 11.1987 15.5238 11.9773 14.6625 12.7287C14.5042 12.8668 14.347 13.0039 14.198 13.1452C14.078 13.2552 13.968 13.3652 13.868 13.4852C13.863 13.4902 13.858 13.4977 13.853 13.5052C13.848 13.5127 13.843 13.5202 13.838 13.5252C13.738 13.6452 13.638 13.7752 13.558 13.9152C13.548 13.9302 13.5405 13.9452 13.533 13.9602C13.5255 13.9752 13.518 13.9902 13.508 14.0052C13.338 14.3052 13.228 14.6552 13.228 15.0752H11.228C11.228 14.5752 11.308 14.1652 11.428 13.8252C11.4324 13.812 11.4349 13.8008 11.4371 13.7907C11.4399 13.7777 11.4424 13.7664 11.448 13.7552C11.453 13.7402 11.4605 13.7277 11.468 13.7152C11.4755 13.7027 11.483 13.6902 11.488 13.6752C11.558 13.4952 11.648 13.3252 11.738 13.1752C11.743 13.1652 11.748 13.1577 11.753 13.1502C11.758 13.1427 11.763 13.1352 11.768 13.1252C11.768 13.1202 11.7705 13.1177 11.773 13.1152C11.7755 13.1127 11.778 13.1102 11.778 13.1052C12.1186 12.5923 12.5754 12.241 13.0025 11.9125C13.6164 11.4404 14.1691 11.0153 14.228 10.2252C14.308 9.2552 13.608 8.3252 12.658 8.1252C11.628 7.9052 10.678 8.5152 10.358 9.4052C10.218 9.7852 9.88803 10.0752 9.47803 10.0752H9.27803C8.66803 10.0752 8.22803 9.4852 8.40803 8.9052Z" fill="white"/>
</svg>
