<svg width="41" height="24" viewBox="0 0 41 24" fill="none" xmlns="http://www.w3.org/2000/svg">
<rect x="1" y="3" width="38.5906" height="18" rx="4" stroke="white" stroke-width="2"/>
<path d="M11.3472 15H10.2354L7.3833 10.4604V15H6.27148V8.60156H7.3833L10.2441 13.1587V8.60156H11.3472V15ZM17.9176 11.9678C17.9176 12.5947 17.8092 13.1455 17.5924 13.6201C17.3756 14.0918 17.065 14.4551 16.6607 14.71C16.2594 14.9619 15.7965 15.0879 15.2721 15.0879C14.7535 15.0879 14.2906 14.9619 13.8834 14.71C13.4791 14.4551 13.1656 14.0933 12.943 13.6245C12.7232 13.1558 12.6119 12.6152 12.609 12.0029V11.6426C12.609 11.0186 12.7188 10.4678 12.9386 9.99023C13.1612 9.5127 13.4732 9.14795 13.8746 8.896C14.2789 8.64111 14.7418 8.51367 15.2633 8.51367C15.7848 8.51367 16.2462 8.63965 16.6476 8.8916C17.0519 9.14062 17.3639 9.50098 17.5836 9.97266C17.8033 10.4414 17.9146 10.9878 17.9176 11.6118V11.9678ZM16.8058 11.6338C16.8058 10.9248 16.671 10.3813 16.4015 10.0034C16.1349 9.62549 15.7555 9.43652 15.2633 9.43652C14.7828 9.43652 14.4063 9.62549 14.1339 10.0034C13.8644 10.3784 13.7267 10.9102 13.7208 11.5986V11.9678C13.7208 12.6709 13.857 13.2144 14.1295 13.5981C14.4049 13.9819 14.7857 14.1738 15.2721 14.1738C15.7643 14.1738 16.1422 13.9863 16.4059 13.6113C16.6725 13.2363 16.8058 12.6885 16.8058 11.9678V11.6338ZM19.175 15V8.60156H21.0646C21.6301 8.60156 22.1311 8.72754 22.5676 8.97949C23.007 9.23145 23.3469 9.58887 23.5871 10.0518C23.8273 10.5146 23.9475 11.0449 23.9475 11.6426V11.9634C23.9475 12.5698 23.8259 13.103 23.5827 13.563C23.3425 14.0229 22.9982 14.3774 22.55 14.6265C22.1047 14.8755 21.5935 15 21.0163 15H19.175ZM20.2868 9.49805V14.1123H21.0119C21.5949 14.1123 22.0417 13.9307 22.3522 13.5674C22.6657 13.2012 22.8254 12.6768 22.8313 11.9941V11.6382C22.8313 10.9438 22.6804 10.4136 22.3786 10.0474C22.0769 9.68115 21.6389 9.49805 21.0646 9.49805H20.2868ZM28.9446 12.1436H26.3167V14.1123H29.3885V15H25.2049V8.60156H29.3577V9.49805H26.3167V11.2646H28.9446V12.1436ZM33.788 13.3521C33.788 13.0708 33.6884 12.854 33.4892 12.7017C33.2929 12.5493 32.9369 12.3955 32.4213 12.2402C31.9057 12.085 31.4955 11.9121 31.1908 11.7217C30.6078 11.3555 30.3163 10.8779 30.3163 10.2891C30.3163 9.77344 30.5258 9.34863 30.9447 9.01465C31.3666 8.68066 31.913 8.51367 32.5839 8.51367C33.0292 8.51367 33.4262 8.5957 33.7748 8.75977C34.1234 8.92383 34.3974 9.1582 34.5966 9.46289C34.7958 9.76465 34.8954 10.1001 34.8954 10.4692H33.788C33.788 10.1353 33.6825 9.87451 33.4716 9.68701C33.2636 9.49658 32.9647 9.40137 32.5751 9.40137C32.2118 9.40137 31.9291 9.479 31.727 9.63428C31.5277 9.78955 31.4281 10.0063 31.4281 10.2847C31.4281 10.519 31.5365 10.7153 31.7533 10.8735C31.9701 11.0288 32.3275 11.1812 32.8256 11.3306C33.3236 11.4771 33.7235 11.6455 34.0253 11.8359C34.3271 12.0234 34.5482 12.2402 34.6889 12.4863C34.8295 12.7295 34.8998 13.0151 34.8998 13.3433C34.8998 13.8765 34.6947 14.3013 34.2846 14.6177C33.8773 14.9312 33.3236 15.0879 32.6234 15.0879C32.1605 15.0879 31.7343 15.0029 31.3446 14.833C30.9579 14.6602 30.6562 14.4229 30.4394 14.1211C30.2255 13.8193 30.1186 13.4678 30.1186 13.0664H31.2304C31.2304 13.4297 31.3505 13.7109 31.5907 13.9102C31.831 14.1094 32.1752 14.209 32.6234 14.209C33.0102 14.209 33.3002 14.1313 33.4936 13.9761C33.6898 13.8179 33.788 13.6099 33.788 13.3521Z" fill="white"/>
</svg>
