<svg width="29" height="25" viewBox="0 0 29 25" fill="none" xmlns="http://www.w3.org/2000/svg">
<rect x="1.40967" y="3.0752" width="26" height="18" rx="4" stroke="white" stroke-width="2"/>
<path d="M6.93994 12.6978V15.0752H5.82812V8.67676H8.27588C8.99072 8.67676 9.55762 8.86279 9.97656 9.23486C10.3984 9.60693 10.6094 10.0991 10.6094 10.7114C10.6094 11.3384 10.4028 11.8262 9.98975 12.1748C9.57959 12.5234 9.00391 12.6978 8.2627 12.6978H6.93994ZM6.93994 11.8057H8.27588C8.67139 11.8057 8.97314 11.7134 9.18115 11.5288C9.38916 11.3413 9.49316 11.0718 9.49316 10.7202C9.49316 10.3745 9.3877 10.0991 9.17676 9.89404C8.96582 9.68604 8.67578 9.5791 8.30664 9.57324H6.93994V11.8057ZM16.8106 15.0752H15.6988L12.8468 10.5356V15.0752H11.735V8.67676H12.8468L15.7076 13.2339V8.67676H16.8106V15.0752ZM23.1789 14.2446C22.9475 14.5464 22.6267 14.7749 22.2165 14.9302C21.8063 15.0854 21.3405 15.1631 20.819 15.1631C20.2829 15.1631 19.8083 15.0415 19.3952 14.7983C18.9821 14.5552 18.6628 14.208 18.4372 13.7568C18.2146 13.3027 18.0988 12.7739 18.09 12.1704V11.6694C18.09 10.7026 18.3215 9.94824 18.7844 9.40625C19.2473 8.86133 19.8933 8.58887 20.7224 8.58887C21.4343 8.58887 21.9997 8.76465 22.4187 9.11621C22.8376 9.46777 23.0896 9.97461 23.1745 10.6367H22.0847C21.9616 9.86621 21.5148 9.48096 20.7443 9.48096C20.2463 9.48096 19.8669 9.66113 19.6062 10.0215C19.3483 10.3789 19.215 10.9048 19.2063 11.5991V12.0913C19.2063 12.7827 19.3513 13.3203 19.6413 13.7041C19.9343 14.085 20.34 14.2754 20.8586 14.2754C21.427 14.2754 21.8313 14.1465 22.0715 13.8887V12.6362H20.7531V11.7925H23.1789V14.2446Z" fill="white"/>
</svg>
