<svg width="29" height="25" viewBox="0 0 29 25" fill="none" xmlns="http://www.w3.org/2000/svg">
<rect x="1.81909" y="3.0752" width="26" height="18" rx="4" stroke="white" stroke-width="2"/>
<path d="M10.5032 13.4272C10.5032 13.146 10.4036 12.9292 10.2043 12.7769C10.0081 12.6245 9.6521 12.4707 9.13647 12.3154C8.62085 12.1602 8.21069 11.9873 7.90601 11.7969C7.323 11.4307 7.03149 10.9531 7.03149 10.3643C7.03149 9.84863 7.24097 9.42383 7.65991 9.08984C8.08179 8.75586 8.62817 8.58887 9.29907 8.58887C9.74438 8.58887 10.1414 8.6709 10.49 8.83496C10.8386 8.99902 11.1125 9.2334 11.3118 9.53809C11.511 9.83984 11.6106 10.1753 11.6106 10.5444H10.5032C10.5032 10.2104 10.3977 9.94971 10.1868 9.76221C9.97876 9.57178 9.67993 9.47656 9.29028 9.47656C8.927 9.47656 8.64429 9.5542 8.44214 9.70947C8.24292 9.86475 8.14331 10.0815 8.14331 10.3599C8.14331 10.5942 8.25171 10.7905 8.46851 10.9487C8.6853 11.104 9.04272 11.2563 9.54077 11.4058C10.0388 11.5522 10.4387 11.7207 10.7405 11.9111C11.0422 12.0986 11.2634 12.3154 11.4041 12.5615C11.5447 12.8047 11.615 13.0903 11.615 13.4185C11.615 13.9517 11.4099 14.3765 10.9998 14.6929C10.5925 15.0063 10.0388 15.1631 9.33862 15.1631C8.87573 15.1631 8.44946 15.0781 8.05981 14.9082C7.6731 14.7354 7.37134 14.498 7.15454 14.1963C6.94067 13.8945 6.83374 13.543 6.83374 13.1416H7.94556C7.94556 13.5049 8.06567 13.7861 8.30591 13.9854C8.54614 14.1846 8.89038 14.2842 9.33862 14.2842C9.72534 14.2842 10.0154 14.2065 10.2087 14.0513C10.405 13.8931 10.5032 13.6851 10.5032 13.4272ZM14.995 13.6821L16.6209 8.67676H17.8426L15.5399 15.0752H14.4632L12.1693 8.67676H13.3866L14.995 13.6821ZM23.5605 14.2446C23.3291 14.5464 23.0083 14.7749 22.5981 14.9302C22.1879 15.0854 21.7221 15.1631 21.2006 15.1631C20.6645 15.1631 20.1899 15.0415 19.7768 14.7983C19.3637 14.5552 19.0444 14.208 18.8188 13.7568C18.5961 13.3027 18.4804 12.7739 18.4716 12.1704V11.6694C18.4716 10.7026 18.7031 9.94824 19.166 9.40625C19.6289 8.86133 20.2749 8.58887 21.104 8.58887C21.8159 8.58887 22.3813 8.76465 22.8002 9.11621C23.2192 9.46777 23.4711 9.97461 23.5561 10.6367H22.4663C22.3432 9.86621 21.8964 9.48096 21.1259 9.48096C20.6279 9.48096 20.2485 9.66113 19.9877 10.0215C19.7299 10.3789 19.5966 10.9048 19.5878 11.5991V12.0913C19.5878 12.7827 19.7329 13.3203 20.0229 13.7041C20.3159 14.085 20.7216 14.2754 21.2402 14.2754C21.8085 14.2754 22.2128 14.1465 22.4531 13.8887V12.6362H21.1347V11.7925H23.5605V14.2446Z" fill="white"/>
</svg>
